<?xml version="1.0" standalone="no"?>
<svg xmlns:xlink="http://www.w3.org/1999/xlink" id="wave" style="transform:rotate(0deg); transition: 0.3s" viewBox="0 0 1440 210" version="1.1" xmlns="http://www.w3.org/2000/svg"><defs><linearGradient id="sw-gradient-0" x1="0" x2="0" y1="1" y2="0"><stop stop-color="rgba(211, 54, 153, 1)" offset="0%"/><stop stop-color="rgba(211, 54, 153, 1)" offset="100%"/></linearGradient></defs><path style="transform:translate(0, 0px); opacity:1" fill="url(#sw-gradient-0)" d="M0,168L18.5,143.5C36.9,119,74,70,111,56C147.7,42,185,63,222,80.5C258.5,98,295,112,332,112C369.2,112,406,98,443,108.5C480,119,517,154,554,171.5C590.8,189,628,189,665,164.5C701.5,140,738,91,775,73.5C812.3,56,849,70,886,94.5C923.1,119,960,154,997,147C1033.8,140,1071,91,1108,91C1144.6,91,1182,140,1218,136.5C1255.4,133,1292,77,1329,70C1366.2,63,1403,105,1440,112C1476.9,119,1514,91,1551,66.5C1587.7,42,1625,21,1662,14C1698.5,7,1735,14,1772,17.5C1809.2,21,1846,21,1883,45.5C1920,70,1957,119,1994,115.5C2030.8,112,2068,56,2105,45.5C2141.5,35,2178,70,2215,80.5C2252.3,91,2289,77,2326,63C2363.1,49,2400,35,2437,56C2473.8,77,2511,133,2548,136.5C2584.6,140,2622,91,2640,66.5L2658.5,42L2658.5,210L2640,210C2621.5,210,2585,210,2548,210C2510.8,210,2474,210,2437,210C2400,210,2363,210,2326,210C2289.2,210,2252,210,2215,210C2178.5,210,2142,210,2105,210C2067.7,210,2031,210,1994,210C1956.9,210,1920,210,1883,210C1846.2,210,1809,210,1772,210C1735.4,210,1698,210,1662,210C1624.6,210,1588,210,1551,210C1513.8,210,1477,210,1440,210C1403.1,210,1366,210,1329,210C1292.3,210,1255,210,1218,210C1181.5,210,1145,210,1108,210C1070.8,210,1034,210,997,210C960,210,923,210,886,210C849.2,210,812,210,775,210C738.5,210,702,210,665,210C627.7,210,591,210,554,210C516.9,210,480,210,443,210C406.2,210,369,210,332,210C295.4,210,258,210,222,210C184.6,210,148,210,111,210C73.8,210,37,210,18,210L0,210Z"/></svg>