<svg width="2520" height="285" viewBox="0 0 2520 285" fill="none" xmlns="http://www.w3.org/2000/svg">
<path d="M0 224.848L17.5362 189.759C34.9776 154.67 70.1448 84.4926 105.217 64.4419C140.005 44.3911 175.362 74.4672 210.434 99.5306C245.033 124.594 279.631 144.645 314.704 144.645C349.966 144.645 384.849 124.594 419.921 139.632C454.993 154.67 490.066 204.797 525.138 229.86C560.021 254.924 595.283 254.924 630.355 219.835C664.954 184.746 699.552 114.569 734.625 89.5053C769.982 64.4419 804.77 84.4926 839.842 119.581C875.009 154.67 909.987 204.797 945.059 194.772C979.942 184.746 1015.2 114.569 1050.28 114.569C1084.97 114.569 1120.42 184.746 1154.55 179.734C1190 174.721 1224.69 94.518 1259.76 84.4926C1295.03 74.4672 1329.91 134.619 1364.98 144.645C1399.96 154.67 1435.13 114.569 1470.2 79.4799C1504.99 44.3911 1540.34 14.315 1575.41 4.28963C1610.01 -5.73574 1644.61 4.28963 1679.68 9.30232C1714.95 14.315 1749.83 14.315 1784.9 49.4038C1819.97 84.4926 1855.05 154.67 1890.12 149.657C1925 144.645 1960.26 64.4419 1995.34 49.4038C2029.93 34.3657 2064.53 84.4926 2099.61 99.5306C2134.96 114.569 2169.75 94.518 2204.82 74.4672C2239.99 54.4165 2274.97 34.3657 2310.04 64.4419C2344.92 94.518 2380.18 174.721 2415.26 179.734C2449.95 184.746 2485.4 114.569 2502.46 79.4799L2520 44.3911V285H2502.46C2484.93 285 2450.33 285 2415.26 285C2379.99 285 2345.11 285 2310.04 285C2274.97 285 2239.89 285 2204.82 285C2169.94 285 2134.68 285 2099.61 285C2065.01 285 2030.41 285 1995.34 285C1959.98 285 1925.19 285 1890.12 285C1854.95 285 1819.97 285 1784.9 285C1750.02 285 1714.76 285 1679.68 285C1644.99 285 1609.54 285 1575.41 285C1539.96 285 1505.27 285 1470.2 285C1434.94 285 1400.05 285 1364.98 285C1330 285 1294.84 285 1259.76 285C1224.98 285 1189.62 285 1154.55 285C1119.95 285 1085.35 285 1050.28 285C1015.01 285 980.132 285 945.059 285C909.987 285 874.914 285 839.842 285C804.959 285 769.697 285 734.625 285C700.026 285 665.428 285 630.355 285C594.999 285 560.211 285 525.138 285C489.971 285 454.993 285 419.921 285C385.038 285 349.776 285 314.704 285C280.011 285 244.559 285 210.434 285C174.983 285 140.29 285 105.217 285C69.9552 285 35.0724 285 17.0623 285H0V224.848Z" fill="url(#paint0_linear_111_4)"/>
<defs>
<linearGradient id="paint0_linear_111_4" x1="0" y1="285" x2="0" y2="0" gradientUnits="userSpaceOnUse">
<stop stop-color="#D33699"/>
<stop offset="1" stop-color="#D33699"/>
</linearGradient>
</defs>
</svg>
