<svg width="2517" height="199" viewBox="0 0 2517 199" fill="none" xmlns="http://www.w3.org/2000/svg">
<path d="M0 156.999L17.5362 132.498C34.9776 107.998 70.1448 58.9966 105.217 44.9962C140.005 30.9959 175.362 51.9964 210.434 69.4968C245.033 86.9973 279.631 100.998 314.704 100.998C349.966 100.998 384.849 86.9973 419.921 97.4975C454.993 107.998 490.066 142.999 525.138 160.499C560.021 177.999 595.283 177.999 630.355 153.499C664.954 128.998 699.552 79.9971 734.625 62.4967C769.982 44.9962 804.77 58.9966 839.842 83.4972C875.009 107.998 909.987 142.999 945.059 135.998C979.942 128.998 1015.2 79.9971 1050.28 79.9971C1084.97 79.9971 1120.42 128.998 1154.55 125.498C1190 121.998 1224.69 65.9968 1259.76 58.9966C1295.03 51.9964 1329.91 93.9974 1364.98 100.998C1399.96 107.998 1435.13 79.9971 1470.2 55.4965C1504.99 30.9959 1540.34 9.99539 1575.41 2.99522C1610.01 -4.00496 1644.61 2.99522 1679.68 6.4953C1714.95 9.99539 1749.83 9.99539 1784.9 34.496C1819.97 58.9966 1855.05 107.998 1890.12 104.498C1925 100.998 1960.26 44.9962 1995.34 34.496C2029.93 23.9957 2064.53 58.9966 2099.61 69.4968C2134.96 79.9971 2169.75 65.9968 2204.82 51.9964C2239.99 37.9961 2274.97 23.9957 2310.04 44.9962C2344.92 65.9968 2380.18 121.998 2415.26 125.498C2449.95 128.998 2485.4 79.9971 2502.46 55.4965L2520 30.9959V199H2502.46C2484.93 199 2450.33 199 2415.26 199C2379.99 199 2345.11 199 2310.04 199C2274.97 199 2239.89 199 2204.82 199C2169.94 199 2134.68 199 2099.61 199C2065.01 199 2030.41 199 1995.34 199C1959.98 199 1925.19 199 1890.12 199C1854.95 199 1819.97 199 1784.9 199C1750.02 199 1714.76 199 1679.68 199C1644.99 199 1609.54 199 1575.41 199C1539.96 199 1505.27 199 1470.2 199C1434.94 199 1400.05 199 1364.98 199C1330 199 1294.84 199 1259.76 199C1224.98 199 1189.62 199 1154.55 199C1119.95 199 1085.35 199 1050.28 199C1015.01 199 980.132 199 945.059 199C909.987 199 874.914 199 839.842 199C804.959 199 769.697 199 734.625 199C700.026 199 665.428 199 630.355 199C594.999 199 560.211 199 525.138 199C489.971 199 454.993 199 419.921 199C385.038 199 349.776 199 314.704 199C280.011 199 244.559 199 210.434 199C174.983 199 140.29 199 105.217 199C69.9552 199 35.0724 199 17.0623 199H0V156.999Z" fill="url(#paint0_linear_90_6)"/>
<defs>
<linearGradient id="paint0_linear_90_6" x1="0" y1="199" x2="0" y2="0" gradientUnits="userSpaceOnUse">
<stop stop-color="#48A8F9"/>
<stop offset="1" stop-color="#48A8F9"/>
</linearGradient>
</defs>
</svg>
