<?xml version="1.0" standalone="no"?>
<svg xmlns:xlink="http://www.w3.org/1999/xlink" id="wave" style="transform:rotate(0deg); transition: 0.3s" viewBox="0 0 1440 220" version="1.1" xmlns="http://www.w3.org/2000/svg"><defs><linearGradient id="sw-gradient-0" x1="0" x2="0" y1="1" y2="0"><stop stop-color="rgba(211, 54, 153, 1)" offset="0%"/><stop stop-color="rgba(211, 54, 153, 1)" offset="100%"/></linearGradient></defs><path style="transform:translate(0, 0px); opacity:1" fill="url(#sw-gradient-0)" d="M0,88L13.3,80.7C26.7,73,53,59,80,73.3C106.7,88,133,132,160,154C186.7,176,213,176,240,150.3C266.7,125,293,73,320,51.3C346.7,29,373,37,400,51.3C426.7,66,453,88,480,88C506.7,88,533,66,560,55C586.7,44,613,44,640,58.7C666.7,73,693,103,720,106.3C746.7,110,773,88,800,88C826.7,88,853,110,880,121C906.7,132,933,132,960,113.7C986.7,95,1013,59,1040,62.3C1066.7,66,1093,110,1120,121C1146.7,132,1173,110,1200,95.3C1226.7,81,1253,73,1280,91.7C1306.7,110,1333,154,1360,150.3C1386.7,147,1413,95,1440,84.3C1466.7,73,1493,103,1520,117.3C1546.7,132,1573,132,1600,132C1626.7,132,1653,132,1680,117.3C1706.7,103,1733,73,1760,58.7C1786.7,44,1813,44,1840,40.3C1866.7,37,1893,29,1907,25.7L1920,22L1920,220L1906.7,220C1893.3,220,1867,220,1840,220C1813.3,220,1787,220,1760,220C1733.3,220,1707,220,1680,220C1653.3,220,1627,220,1600,220C1573.3,220,1547,220,1520,220C1493.3,220,1467,220,1440,220C1413.3,220,1387,220,1360,220C1333.3,220,1307,220,1280,220C1253.3,220,1227,220,1200,220C1173.3,220,1147,220,1120,220C1093.3,220,1067,220,1040,220C1013.3,220,987,220,960,220C933.3,220,907,220,880,220C853.3,220,827,220,800,220C773.3,220,747,220,720,220C693.3,220,667,220,640,220C613.3,220,587,220,560,220C533.3,220,507,220,480,220C453.3,220,427,220,400,220C373.3,220,347,220,320,220C293.3,220,267,220,240,220C213.3,220,187,220,160,220C133.3,220,107,220,80,220C53.3,220,27,220,13,220L0,220Z"/></svg>